<?xml version="1.0" encoding="UTF-8" standalone="no"?>
<svg
   xmlns:dc="http://purl.org/dc/elements/1.1/"
   xmlns:cc="http://creativecommons.org/ns#"
   xmlns:rdf="http://www.w3.org/1999/02/22-rdf-syntax-ns#"
   xmlns:svg="http://www.w3.org/2000/svg"
   xmlns="http://www.w3.org/2000/svg"
   xmlns:sodipodi="http://sodipodi.sourceforge.net/DTD/sodipodi-0.dtd"
   xmlns:inkscape="http://www.inkscape.org/namespaces/inkscape"
   width="200.88113"
   height="201.18573"
   id="svg2"
   version="1.1"
   inkscape:version="0.91 r13725"
   sodipodi:docname="bitrixVsWordpress.svg">
  <defs
     id="defs21" />
  <sodipodi:namedview
     id="base"
     pagecolor="#ffffff"
     bordercolor="#666666"
     borderopacity="1.0"
     inkscape:pageopacity="0.0"
     inkscape:pageshadow="2"
     inkscape:zoom="0.9899495"
     inkscape:cx="-141.34722"
     inkscape:cy="50.499952"
     inkscape:document-units="px"
     inkscape:current-layer="layer1"
     showgrid="false"
     width="0px"
     height="0px"
     fit-margin-top="0"
     fit-margin-left="0"
     fit-margin-right="0"
     fit-margin-bottom="0"
     borderlayer="false"
     inkscape:window-width="1280"
     inkscape:window-height="966"
     inkscape:window-x="0"
     inkscape:window-y="30"
     inkscape:window-maximized="1"
     showguides="true"
     inkscape:guide-bbox="true" />
  <metadata
     id="metadata7">
    <rdf:RDF>
      <cc:Work
         rdf:about="">
        <dc:format>image/svg+xml</dc:format>
        <dc:type
           rdf:resource="http://purl.org/dc/dcmitype/StillImage" />
        <dc:title />
      </cc:Work>
    </rdf:RDF>
  </metadata>
  <g
     inkscape:label="Layer 1"
     inkscape:groupmode="layer"
     id="layer1"
     transform="translate(-76.221179,-152.76972)">
    <path
       style="fill:#b3b3b3;fill-opacity:1"
       d="m 127.12553,321.95432 c -6.23049,-1.29019 -12.04426,-4.16824 -16.60834,-8.22179 -11.717107,-10.40646 -15.338331,-26.75436 -9.14844,-41.30039 1.52007,-3.57212 3.9913,-7.19729 7.05323,-10.34674 l 2.69946,-2.77662 0.19039,16.25141 c 0.18224,15.5555 0.22331,16.3391 0.95914,18.29932 1.47207,3.92158 3.05023,6.41838 5.76705,9.12404 7.01797,6.98915 17.31198,8.73343 26.06277,4.41625 8.22515,-4.05785 13.41059,-12.88123 12.80801,-21.7937 -0.40476,-5.98657 -2.41804,-10.37646 -6.76476,-14.75037 -3.28677,-3.30733 -7.15375,-5.46767 -11.36382,-6.34855 -4.28342,-0.89623 -4.07789,-1.0272 -4.07789,2.59843 l 0,3.13011 2.34828,0.43269 c 9.09436,1.6757 15.1091,10.60608 13.21348,19.61869 -0.60543,2.87849 -1.95585,5.42035 -4.12362,7.76179 -3.29437,3.55833 -7.92925,5.25914 -11.97631,5.25133 -6.69186,-0.0129 -12.27968,-3.81557 -14.98794,-9.43892 0,0 -0.70946,-1.60734 -0.93746,-2.6006 -1.34078,-5.84118 -0.48376,-18.13729 -0.48376,-18.13729 l -0.10383,-17.97899 1.06138,-0.54885 c 0.58376,-0.30187 1.14361,-0.54886 1.24413,-0.54886 0.10053,0 0.22812,8.25774 0.28356,18.35054 0,0 -1.28888,13.23029 0.30387,18.30034 0.22981,0.73151 0.66608,1.98267 0.66608,1.98267 1.39625,2.84457 3.63402,5.34674 6.54159,6.72399 2.20714,1.04548 3.3184,1.51861 6.58373,1.51861 2.13345,0 4.02345,-0.67343 6.1982,-1.67365 2.56366,-1.17907 5.50452,-4.30517 6.59129,-7.1594 2.99421,-7.8639 -1.17501,-16.32444 -9.20698,-18.6836 -3.2826,-0.96417 -3.21569,-1.01727 -3.21569,2.55215 l 0,3.11785 1.57572,0.42144 c 5.67973,1.5191 7.4128,9.13199 2.95405,13.04372 -1.57533,1.38206 -2.99483,1.99297 -5.47797,1.99297 -2.65332,0 -5.20024,-1.60598 -6.50959,-4.06921 -0.78653,-1.47966 -0.85292,-2.88317 -0.85292,-3.52599 0,-5.93766 -0.12862,-16.61643 -0.12862,-16.61643 l -0.10623,-18.31789 0.81543,-0.20253 c 0.44849,-0.11139 2.26115,-0.38702 4.02815,-0.61251 5.99267,-0.76474 14.85847,1.19642 20.81466,4.60429 8.12035,4.64611 14.26469,12.62744 16.82296,21.85261 0.87998,3.17322 0.97807,4.0959 0.97807,9.20052 0,5.08183 -0.1003,6.03503 -0.96167,9.13887 -3.4795,12.53814 -12.33052,21.50117 -24.98631,25.30249 -2.6635,0.80002 -3.91124,0.95256 -8.61113,1.05281 -3.79279,0.0809 -6.25103,-0.0391 -7.9314,-0.38705 z"
       id="path821"
       inkscape:connector-curvature="0"
       sodipodi:nodetypes="sssscsssssssscssssssccssssssssssscsssssccsssssssss" />
    <g
       id="g3351"
       transform="matrix(0.37575477,0,0,0.37575477,137.77402,173.7181)"
       style="fill:#b3b3b3">
      <path
         id="path3353"
         d="M 106.377,0 C 47.721,0 0,47.721 0,106.377 c 0,58.656 47.721,106.377 106.377,106.377 58.656,0 106.377,-47.721 106.377,-106.377 C 212.754,47.721 165.034,0 106.377,0 Z m 0,198.755 C 55.44,198.755 14,157.314 14,106.377 14,55.44 55.44,14 106.377,14 c 50.937,0 92.377,41.44 92.377,92.377 0,50.937 -41.44,92.378 -92.377,92.378 z"
         inkscape:connector-curvature="0"
         style="fill:#b3b3b3" />
      <path
         id="path3355"
         d="m 113.377,100.096 0,-39.744 c 3.961,1.471 7.417,4.17 9.82,7.82 2.127,3.229 6.468,4.123 9.696,1.997 3.229,-2.126 4.123,-6.467 1.996,-9.696 -5.029,-7.636 -12.778,-12.82 -21.512,-14.647 l 0,-11.12 c 0,-3.866 -3.134,-7 -7,-7 -3.866,0 -7,3.134 -7,7 l 0,11.099 c -15.493,3.23 -27.168,16.989 -27.168,33.426 0,16.437 11.676,30.198 27.168,33.428 l 0,39.744 c -3.961,-1.471 -7.417,-4.17 -9.82,-7.82 -2.127,-3.229 -6.468,-4.124 -9.696,-1.997 -3.229,2.126 -4.123,6.467 -1.996,9.696 5.029,7.636 12.778,12.82 21.512,14.647 l 0,11.119 c 0,3.866 3.134,7 7,7 3.866,0 7,-3.134 7,-7 l 0,-11.098 c 15.493,-3.23 27.168,-16.989 27.168,-33.426 0,-16.437 -11.675,-30.198 -27.168,-33.428 z M 86.209,79.231 c 0,-8.653 5.494,-16.027 13.168,-18.874 l 0,37.748 C 91.703,95.258 86.209,87.884 86.209,79.231 Z m 27.168,73.166 0,-37.748 c 7.674,2.847 13.168,10.221 13.168,18.874 0,8.653 -5.493,16.027 -13.168,18.874 z"
         inkscape:connector-curvature="0"
         style="fill:#b3b3b3" />
    </g>
    <g
       id="g4211"
       transform="matrix(0.14132468,0,0,0.14132468,182.57301,250.80222)"
       style="fill:#b3b3b3">
      <g
         id="g4167"
         style="fill:#b3b3b3">
        <g
           id="g4169"
           style="fill:#b3b3b3">
          <g
             id="g4171"
             style="fill:#b3b3b3">
            <path
               id="path4173"
               d="M 254.26,0 C 113.845,0 0,113.845 0,254.26 0,394.675 113.845,508.52 254.26,508.52 394.675,508.52 508.52,394.675 508.52,254.26 508.52,113.845 394.675,0 254.26,0 Z M 36.327,254.26 c 0,-30.765 6.801,-60.005 18.879,-86.385 l 103.96,277.397 C 86.448,410.884 36.327,338.261 36.327,254.26 Z M 254.26,466.567 c -21.39,0 -42.016,-3.083 -61.563,-8.613 l 65.377,-185.101 66.934,178.745 1.557,2.956 c -22.597,7.722 -46.911,12.013 -72.305,12.013 z m 29.971,-311.818 c 13.094,-0.667 24.949,-2.002 24.949,-2.002 11.728,-1.367 10.361,-18.148 -1.367,-17.512 0,0 -35.31,2.702 -58.13,2.702 -21.39,0 -57.399,-2.702 -57.399,-2.702 -11.759,-0.667 -13.126,16.813 -1.398,17.512 0,0 11.124,1.335 22.852,2.002 l 33.975,90.612 -47.706,139.334 -79.329,-229.914 c 13.158,-0.667 24.949,-2.002 24.949,-2.002 11.728,-1.367 10.361,-18.148 -1.367,-17.512 0,0 -35.31,2.702 -58.067,2.702 l -14.016,-0.254 c 38.934,-57.622 105.931,-95.697 182.05,-95.697 56.732,0 108.378,21.135 147.185,55.715 l -2.829,-0.191 c -21.421,0 -36.582,18.148 -36.582,37.662 0,17.512 10.329,32.291 21.358,49.803 8.391,14.175 17.989,32.323 17.989,58.543 0,18.148 -7.151,39.22 -16.559,68.65 l -21.771,70.716 -78.787,-228.167 z m 79.583,282.928 66.584,-187.421 c 12.459,-30.289 16.559,-54.475 16.559,-76.024 0,-7.818 -0.509,-15.065 -1.43,-21.835 16.972,30.257 26.697,64.963 26.697,101.863 -0.032,78.312 -43.605,146.676 -108.41,183.417 z"
               inkscape:connector-curvature="0"
               style="fill:#b3b3b3" />
          </g>
        </g>
      </g>
      <g
         id="g4175"
         style="fill:#b3b3b3" />
      <g
         id="g4177"
         style="fill:#b3b3b3" />
      <g
         id="g4179"
         style="fill:#b3b3b3" />
      <g
         id="g4181"
         style="fill:#b3b3b3" />
      <g
         id="g4183"
         style="fill:#b3b3b3" />
      <g
         id="g4185"
         style="fill:#b3b3b3" />
      <g
         id="g4187"
         style="fill:#b3b3b3" />
      <g
         id="g4189"
         style="fill:#b3b3b3" />
      <g
         id="g4191"
         style="fill:#b3b3b3" />
      <g
         id="g4193"
         style="fill:#b3b3b3" />
      <g
         id="g4195"
         style="fill:#b3b3b3" />
      <g
         id="g4197"
         style="fill:#b3b3b3" />
      <g
         id="g4199"
         style="fill:#b3b3b3" />
      <g
         id="g4201"
         style="fill:#b3b3b3" />
      <g
         id="g4203"
         style="fill:#b3b3b3" />
    </g>
  </g>
</svg>
