<svg id="Слой_1" data-name="Слой 1" xmlns="http://www.w3.org/2000/svg" width="236.5" height="113.365" viewBox="0 0 236.5 113.365">
  <defs>
    <style>
      .cls-1 {fill: #CCCCCC;}.cls-2, .cls-3 {fill: none;stroke-miterlimit: 10;}.cls-2 {stroke: #b92b2e;}.cls-3 {stroke: #333;stroke-width: 4px;stroke-dasharray: 800;stroke-dashoffset: 800;animation: dash 3s linear forwards;}@-webkit-keyframes dash {to {stroke-dashoffset: 0;}
    </style>
  </defs>
  <title>Dmitry Koptelov - Software &amp; Front-end Developer</title><desc>My personal logo</desc>
  <path class="cls-1" d="M32.84,70.27H28.75L18.19,54.72l-3.36,3.75v11.8H11.5V38.51h3.33V53.96l13.6-15.45h4.4L20.38,52.38Z" transform="translate(-0.06 -9.945)"/>
  <path class="cls-1" d="M61.04,54.43a28.41,28.41,0,0,1-.66,6.16,16.21,16.21,0,0,1-2.09,5.23,11.05,11.05,0,0,1-3.76,3.64,12.33,12.33,0,0,1-11.31,0,11.16,11.16,0,0,1-3.77-3.64,15.86,15.86,0,0,1-2.1-5.21,29.71,29.71,0,0,1,0-12.31,15.8,15.8,0,0,1,2.12-5.26,11.31,11.31,0,0,1,3.8-3.66,12.13,12.13,0,0,1,11.22,0,11,11,0,0,1,3.76,3.66,16.9,16.9,0,0,1,2.12,5.26A27.45,27.45,0,0,1,61.04,54.43Zm-3.38,0a24.65,24.65,0,0,0-.6-5.66,14.09,14.09,0,0,0-1.71-4.29,7.86,7.86,0,0,0-2.76-2.71,7.38,7.38,0,0,0-3.73-.94,7.15,7.15,0,0,0-4.29,1.22,8.9,8.9,0,0,0-2.71,3.19,14.72,14.72,0,0,0-1.42,4.37,29.1,29.1,0,0,0,0,9.62,14.27,14.27,0,0,0,1.42,4.38,9.09,9.09,0,0,0,2.71,3.16,8.08,8.08,0,0,0,8.56,0,9,9,0,0,0,2.73-3.16,14,14,0,0,0,1.41-4.36,30.26,30.26,0,0,0,.38-4.82h0.01Z" transform="translate(-0.06 -9.945)"/>
  <path class="cls-1" d="M87.34,47.61q0,4.6-2.87,6.84t-8.05,2.24H69.24v13.6H65.9V38.51H76.36q5.23,0,8.1,2.27T87.34,47.61Zm-3.33,0a5.43,5.43,0,0,0-2.07-4.76,9.34,9.34,0,0,0-5.52-1.47H69.24V53.84h7.18a9.34,9.34,0,0,0,5.52-1.47A5.43,5.43,0,0,0,84,47.61h0.01Z" transform="translate(-0.06 -9.945)"/>
  <path class="cls-1" d="M114.59,49.24h-2.85V41.36h-6.79V67.42h5.11v2.85H96.44V67.42h5.13V41.36H94.76v7.88H91.91V38.51h22.68V49.24h0Z" transform="translate(-0.06 -9.945)"/>
  <path class="cls-1" d="M140.6,70.27H120.31V38.51H140.6v2.85h-17V52.72h12.52v2.89H123.64V67.46h17v2.85Z" transform="translate(-0.06 -9.945)"/>
  <path class="cls-1" d="M167.8,70.27H147.51V38.51h3.33v28.9h17v2.85Z" transform="translate(-0.06 -9.945)"/>
  <path class="cls-1" d="M197.04,54.43a28.41,28.41,0,0,1-.66,6.16,16.21,16.21,0,0,1-2.09,5.23,11.05,11.05,0,0,1-3.76,3.64,12.33,12.33,0,0,1-11.31,0,11.16,11.16,0,0,1-3.77-3.64,15.86,15.86,0,0,1-2.09-5.23,29.71,29.71,0,0,1,0-12.31,15.8,15.8,0,0,1,2.12-5.26,11.31,11.31,0,0,1,3.8-3.66,12.13,12.13,0,0,1,11.22,0,11,11,0,0,1,3.76,3.66,16.9,16.9,0,0,1,2.12,5.26A27.45,27.45,0,0,1,197.04,54.43Zm-3.38,0a24.65,24.65,0,0,0-.6-5.66,14.09,14.09,0,0,0-1.71-4.29,7.86,7.86,0,0,0-2.76-2.71,7.38,7.38,0,0,0-3.73-.94,7.15,7.15,0,0,0-4.29,1.22,8.9,8.9,0,0,0-2.71,3.19,14.72,14.72,0,0,0-1.42,4.38,29.1,29.1,0,0,0,0,9.62,14.27,14.27,0,0,0,1.42,4.36,9.09,9.09,0,0,0,2.71,3.16,8.08,8.08,0,0,0,8.56,0,9,9,0,0,0,2.72-3.16,14,14,0,0,0,1.41-4.36A30.262,30.262,0,0,0,193.66,54.43Z" transform="translate(-0.06 -9.945)"/>
  <path class="cls-1" d="M224.93,38.51L214.32,70.27h-4.53L199.28,38.51h3.53l9.31,28.37,9.22-28.37h3.59Z" transform="translate(-0.06 -9.945)"/>
  <path class="cls-1" d="M171.93,113.61a10.23,10.23,0,0,1-.25,2.31,5.72,5.72,0,0,1-.82,1.93,4.06,4.06,0,0,1-1.45,1.31,4.42,4.42,0,0,1-2.14.48h-3.93V107.52h3.93a4.27,4.27,0,0,1,2.12.5,4.18,4.18,0,0,1,1.45,1.33,5.93,5.93,0,0,1,.83,1.93A9.84,9.84,0,0,1,171.93,113.61Zm-1.27,0a6.45,6.45,0,0,0-.9-3.68,2.85,2.85,0,0,0-2.49-1.3h-2.66v9.94h2.66a2.86,2.86,0,0,0,2.49-1.29A6.38,6.38,0,0,0,170.66,113.61Z" transform="translate(-0.06 -9.945)"/>
  <path class="cls-1" d="M174.53,115.75a3.35,3.35,0,0,0,1,2.19,3.13,3.13,0,0,0,2.24.82,3.67,3.67,0,0,0,1.74-.4,2.93,2.93,0,0,0,1.14-1l0.89,0.61a4.49,4.49,0,0,1-1.55,1.39,4.68,4.68,0,0,1-2.22.48,4.9,4.9,0,0,1-1.84-.33,4.32,4.32,0,0,1-1.44-.93,4.17,4.17,0,0,1-.94-1.42,4.86,4.86,0,0,1-.33-1.84,5.27,5.27,0,0,1,.3-1.81,4.12,4.12,0,0,1,.87-1.44,3.94,3.94,0,0,1,1.39-.95,4.73,4.73,0,0,1,1.83-.34,4.68,4.68,0,0,1,1.93.37,3.82,3.82,0,0,1,1.38,1,4.2,4.2,0,0,1,.82,1.56,7.17,7.17,0,0,1,.26,2h-7.47v0.04Zm6.12-1.08a3.3,3.3,0,0,0-1-2.11,3,3,0,0,0-2-.69,3.14,3.14,0,0,0-1.13.2,2.83,2.83,0,0,0-.92.57,3.23,3.23,0,0,0-.67.89,3.35,3.35,0,0,0-.34,1.14h6.06Z" transform="translate(-0.06 -9.945)"/>
  <path class="cls-1" d="M192.57,110.99l-3.75,8.62h-1.7l-3.77-8.65h1.52l3.1,7.58,3.08-7.58h1.52v0.03Z" transform="translate(-0.06 -9.945)"/>
  <path class="cls-1" d="M202.6,119.61h-1.56l-4-5.93-1.28,1.43v4.5h-1.27V107.52h1.27v5.89l5.19-5.89h1.68l-4.75,5.29Z" transform="translate(-0.06 -9.945)"/>
  <path class="cls-1" d="M213.42,113.61a10.23,10.23,0,0,1-.25,2.31,5.72,5.72,0,0,1-.82,1.93,4.06,4.06,0,0,1-1.45,1.31,4.42,4.42,0,0,1-2.14.48h-3.93V107.52h3.93a4.27,4.27,0,0,1,2.12.5,4.18,4.18,0,0,1,1.45,1.33,5.93,5.93,0,0,1,.83,1.93A9.84,9.84,0,0,1,213.42,113.61Zm-1.3,0a6.45,6.45,0,0,0-.9-3.68,2.85,2.85,0,0,0-2.49-1.3h-2.61v9.94h2.66a2.86,2.86,0,0,0,2.49-1.29A6.38,6.38,0,0,0,212.12,113.61Z" transform="translate(-0.06 -9.945)"/>
  <polyline class="cls-2" points="215.62 103.325 215.62 112.865 209.07 112.865"/>
  <polyline class="cls-2" points="161.04 103.325 161.04 94.615 167.58 94.615"/>
  <g id="border">
    <polyline class="cls-3" points="157.925 103.42 2 103.42 2 2 234.5 2 234.5 103.42 220.25 103.42"/>
  </g>
</svg>
